<?xml version="1.0" encoding="iso-8859-1"?>
<!-- Generator: Adobe Illustrator 19.0.0, SVG Export Plug-In . SVG Version: 6.00 Build 0)  -->
<svg xmlns="http://www.w3.org/2000/svg" xmlns:xlink="http://www.w3.org/1999/xlink" version="1.1" id="Layer_1" x="0px" y="0px" viewBox="0 0 512 512" style="enable-background:new 0 0 512 512;" xml:space="preserve" width="512px" height="512px">
<g>
	<g>
		<path d="M331.842,0H180.157c-26.741,0-48.496,21.755-48.496,48.496v197.492c0,20.805,16.927,37.733,37.733,37.733h37.624    c5.328,0,10.195,2.208,13.704,6.217c3.509,4.01,5.053,9.125,4.346,14.406l-19.995,149.461    c-1.964,14.685,2.505,29.502,12.261,40.651c9.757,11.148,23.85,17.543,38.665,17.543c14.815,0,28.909-6.395,38.665-17.544    c9.757-11.149,14.226-25.965,12.261-40.65l-19.992-149.462c-0.707-5.281,0.836-10.397,4.345-14.406    c3.509-4.009,8.376-6.217,13.704-6.217h37.624c20.805,0,37.733-16.928,37.733-37.733V48.496C380.338,21.755,358.583,0,331.842,0z     M342.605,263.323h-37.624c-11.132,0-21.722,4.805-29.052,13.182c-7.331,8.378-10.69,19.51-9.214,30.545l19.993,149.461    c1.185,8.855-1.509,17.788-7.393,24.512c-5.883,6.723-14.381,10.579-23.315,10.579c-8.933,0-17.431-3.855-23.315-10.579    s-8.579-15.658-7.394-24.512l19.995-149.461c1.476-11.034-1.883-22.168-9.214-30.545c-7.331-8.378-17.921-13.182-29.053-13.182    h-37.624c-8.644,0-15.83-6.359-17.126-14.645H359.73C358.435,256.963,351.249,263.323,342.605,263.323z M359.94,228.28h-207.88    v-53.693h207.88V228.28z M359.941,154.188H152.059V48.496c0-11.8,7.316-21.918,17.648-26.074v104.921    c0,5.632,4.566,10.199,10.199,10.199s10.199-4.567,10.199-10.199V20.398h17.649v106.944c0,5.632,4.566,10.199,10.199,10.199    s10.199-4.567,10.199-10.199V20.398H245.8v106.944c0,5.632,4.566,10.199,10.199,10.199c5.632,0,10.199-4.567,10.199-10.199V20.398    h17.649v106.944c0,5.632,4.567,10.199,10.199,10.199s10.199-4.567,10.199-10.199V20.398h17.648v69.898    c0,5.632,4.567,10.199,10.199,10.199c5.632,0,10.199-4.567,10.199-10.199V22.421c10.332,4.155,17.649,14.274,17.649,26.074    V154.188z" fill="#4c253d"/>
	</g>
</g>
<g>
	<g>
		<path d="M332.092,112.137c-5.632,0-10.199,4.567-10.199,10.199v5.006c0,5.632,4.567,10.199,10.199,10.199    s10.199-4.567,10.199-10.199v-5.006C342.291,116.704,337.725,112.137,332.092,112.137z" fill="#4c253d"/>
	</g>
</g>
<g>
	<g>
		<path d="M255.999,447.548c-5.633,0-10.199,4.567-10.199,10.199v5.006c0,5.632,4.566,10.199,10.199,10.199    c5.632,0,10.199-4.567,10.199-10.199v-5.006C266.199,452.115,261.632,447.548,255.999,447.548z" fill="#4c253d"/>
	</g>
</g>
<g>
</g>
<g>
</g>
<g>
</g>
<g>
</g>
<g>
</g>
<g>
</g>
<g>
</g>
<g>
</g>
<g>
</g>
<g>
</g>
<g>
</g>
<g>
</g>
<g>
</g>
<g>
</g>
<g>
</g>
</svg>
