<?xml version="1.0" encoding="iso-8859-1"?>
<!-- Generator: Adobe Illustrator 19.0.0, SVG Export Plug-In . SVG Version: 6.00 Build 0)  -->
<svg version="1.1" id="Capa_1" xmlns="http://www.w3.org/2000/svg" xmlns:xlink="http://www.w3.org/1999/xlink" x="0px" y="0px"
	 viewBox="0 0 480 480" style="enable-background:new 0 0 480 480;" xml:space="preserve">
<g>
	<g>
		<g>
			<path d="M376,166.255c-39.764,0-72,32.235-72,72c0,39.764,32.236,72,72,72c39.765,0,72-32.236,72-72
				C447.952,198.51,415.744,166.303,376,166.255z M392.752,184.815c6.022,1.92,11.676,4.847,16.72,8.656L400,202.943l-12.688-12.688
				L392.752,184.815z M412.688,238.255L400,250.943l-12.688-12.688L400,225.567L412.688,238.255z M388.688,214.255L376,226.943
				l-12.688-12.688L376,201.567L388.688,214.255z M364.688,238.255L352,250.943l-12.688-12.688L352,225.567L364.688,238.255z
				 M359.248,184.799l5.44,5.456L352,202.943l-9.472-9.488C347.572,189.646,353.226,186.719,359.248,184.799z M331.216,204.783
				l9.472,9.472L328,226.943l-5.44-5.44C324.48,215.48,327.407,209.827,331.216,204.783z M331.2,271.727
				c-3.809-5.044-6.736-10.698-8.656-16.72l5.456-5.44l12.688,12.688L331.2,271.727z M359.248,291.695
				c-6.022-1.92-11.676-4.847-16.72-8.656l9.472-9.472l12.688,12.688L359.248,291.695z M363.312,262.255L376,249.567l12.688,12.688
				L376,274.943L363.312,262.255z M392.752,291.711l-5.44-5.456L400,273.567l9.472,9.488
				C404.428,286.864,398.774,289.791,392.752,291.711z M420.784,271.727l-9.472-9.472L424,249.567l5.44,5.44
				C427.52,261.029,424.593,266.682,420.784,271.727z M424,226.943l-12.688-12.688l9.488-9.472
				c3.809,5.044,6.736,10.698,8.656,16.72L424,226.943z"/>
			<path d="M376.96,134.255H103.04C46.169,134.343,0.088,180.424,0,237.295v1.92c0.088,56.871,46.169,102.952,103.04,103.04h273.92
				c56.871-0.088,102.952-46.169,103.04-103.04v-1.92C479.912,180.424,433.831,134.343,376.96,134.255z M464,239.215
				c-0.057,48.047-38.993,86.983-87.04,87.04H103.04c-48.047-0.057-86.983-38.993-87.04-87.04v-1.92
				c0.057-48.047,38.993-86.983,87.04-87.04h273.92c48.047,0.057,86.983,38.993,87.04,87.04V239.215z"/>
			<path d="M232,170.943v47.072l-21.648-21.648l-11.312,11.312l29.648,29.648l-29.648,29.656l11.312,11.312L232,256.655v47.072
				l42.848-42.848l-23.528-23.544l23.528-23.536L232,170.943z M252.224,260.871L248,265.095v-8.44L252.224,260.871z M248,218.023
				v-8.456l4.224,4.224L248,218.023z"/>
			<path d="M104,166.255c-39.765,0-72,32.235-72,72c0,39.764,32.235,72,72,72s72-32.236,72-72
				C175.952,198.51,143.744,166.303,104,166.255z M120.752,184.815c6.022,1.92,11.676,4.847,16.72,8.656L128,202.943l-12.688-12.688
				L120.752,184.815z M140.688,238.255L128,250.943l-12.688-12.688L128,225.567L140.688,238.255z M116.688,214.255L104,226.943
				l-12.688-12.688L104,201.567L116.688,214.255z M92.688,238.255L80,250.943l-12.688-12.688L80,225.567L92.688,238.255z
				 M87.248,184.799l5.44,5.456L80,202.943l-9.472-9.488C75.572,189.646,81.226,186.719,87.248,184.799z M59.2,204.783l9.488,9.472
				L56,226.943l-5.44-5.44C52.475,215.482,55.396,209.828,59.2,204.783z M59.2,271.727c-3.809-5.044-6.736-10.698-8.656-16.72
				l5.456-5.44l12.688,12.688L59.2,271.727z M87.248,291.695c-6.022-1.92-11.676-4.847-16.72-8.656L80,273.567l12.688,12.688
				L87.248,291.695z M91.312,262.255L104,249.567l12.688,12.688L104,274.943L91.312,262.255z M120.752,291.711l-5.44-5.456
				L128,273.567l9.472,9.488C132.428,286.864,126.774,289.791,120.752,291.711z M148.784,271.727l-9.472-9.472L152,249.567
				l5.44,5.44C155.52,261.029,152.593,266.682,148.784,271.727z M152,226.943l-12.688-12.688l9.488-9.472
				c3.809,5.044,6.736,10.698,8.656,16.72L152,226.943z"/>
			<path d="M285.392,49.695L293,35.615c-33.171-17.48-72.829-17.48-106,0l7.608,14.08C223.021,34.735,256.979,34.735,285.392,49.695
				z"/>
			<path d="M216.536,90.455l7.6,14.08c9.85-5.544,21.878-5.544,31.728,0l7.6-14.08C248.869,82.358,231.131,82.358,216.536,90.455z"
				/>
			<path d="M278.4,62.775c-24.015-12.648-52.721-12.648-76.736,0l7.6,14.08c19.262-10.128,42.274-10.128,61.536,0L278.4,62.775z"/>
			<path d="M194.6,430.063l-7.592,14.08c33.085,17.803,72.899,17.803,105.984,0l-7.592-14.08
				C256.982,445.022,223.018,445.022,194.6,430.063z"/>
			<path d="M263.464,389.295l-7.6-14.08c-9.848,5.551-21.881,5.551-31.728,0l-7.6,14.08
				C231.12,397.433,248.88,397.433,263.464,389.295z"/>
			<path d="M201.6,416.975c23.953,12.896,52.783,12.896,76.736,0l-7.6-14.08c-19.258,10.145-42.278,10.145-61.536,0L201.6,416.975z"
				/>
		</g>
	</g>
</g>
<g>
</g>
<g>
</g>
<g>
</g>
<g>
</g>
<g>
</g>
<g>
</g>
<g>
</g>
<g>
</g>
<g>
</g>
<g>
</g>
<g>
</g>
<g>
</g>
<g>
</g>
<g>
</g>
<g>
</g>
</svg>
