<?xml version="1.0" encoding="iso-8859-1"?>
<svg xmlns="http://www.w3.org/2000/svg" xmlns:xlink="http://www.w3.org/1999/xlink" version="1.1" viewBox="0 0 277.4 277.4" enable-background="new 0 0 277.4 277.4" width="512px" height="512px">
  <g>
    <path d="m274.938,14.282c-1.74-1.74-3.48-1.74-6.96-1.74-3.48,1.74-76.565,13.921-111.368,48.723-43.503,43.503-27.842,73.085-13.921,87.006 0.679,0.679 1.514,1.201 2.245,1.844-3.411,6.421-6.613,12.825-9.449,19.159-4.89-15.887-12.999-31.548-23.683-46.757 5.36-7.657 8.057-15.313 6.525-22.97-1.74-12.181-10.441-24.362-26.102-36.543-27.841-20.882-81.785-24.361-83.524-24.361-3.48,0-5.22,1.74-6.96,3.48-1.741,3.48-1.741,5.22-1.741,8.701 0,1.74 15.661,52.204 43.503,74.825 13.921,10.441 26.102,15.661 38.283,15.661 6.404,0 12.72-2.21 18.324-6.143 15.783,21.247 22.813,43.642 23.335,66.09-4.716,15.696-7.448,31.079-8.231,46.2h-24.727c-5.22,0-8.701,3.48-8.701,8.701 0,5.22 3.48,8.701 8.701,8.701h67.865c5.22,0 8.701-3.48 8.701-8.701 0-5.22-3.48-8.701-8.701-8.701h-25.754c0.766-14.043 3.271-28.608 7.848-43.503h0.504c0-0.417-0.052-0.853-0.07-1.27 4.507-14.321 10.893-28.886 19.141-43.521 5.063,1.879 10.371,3.028 15.731,3.028 17.401,0 34.802-10.441 52.204-29.582 34.802-34.802 48.723-107.888 48.723-111.368 1.74-1.739 0-5.219-1.741-6.959zm-220.995,97.446c-15.661-13.92-27.842-38.282-33.062-53.943 17.401,1.74 45.243,6.96 59.164,19.141 12.181,10.441 17.401,19.141 19.141,26.102 1.74,5.22 0,8.701-3.48,13.921-10.441,12.181-24.361,8.7-41.763-5.221zm163.572,8.701c-24.362,26.102-45.243,31.322-62.644,13.921-15.661-15.661-12.181-36.543 13.921-62.644 24.362-22.621 67.865-34.802 90.486-40.023-5.221,20.881-19.142,66.124-41.763,88.746z" fill="#4c253d"/>
  </g>
</svg>
