<?xml version="1.0" encoding="utf-8"?>
<!-- Generator: Adobe Illustrator 19.0.0, SVG Export Plug-In . SVG Version: 6.00 Build 0)  -->
<svg version="1.1" id="Layer_1" xmlns="http://www.w3.org/2000/svg" xmlns:xlink="http://www.w3.org/1999/xlink" x="0px" y="0px"
	 viewBox="-262 390 86 14" style="enable-background:new -262 390 86 14;" xml:space="preserve">
<style type="text/css">
	.st0{fill:#4C253D;}
</style>
<path class="st0" d="M-182.8,390.2c-3.2,0-5.9,2.4-6.4,5.5h-23.3c-0.5-3.1-3.1-5.5-6.4-5.5c-3.2,0-5.9,2.4-6.4,5.5h-23.3
	c-0.5-3.1-3.1-5.5-6.4-5.5c-3.6,0-6.5,2.9-6.5,6.5c0,3.6,2.9,6.5,6.5,6.5c3.2,0,5.9-2.4,6.4-5.5h23.3c0.5,3.1,3.1,5.5,6.4,5.5
	c3.2,0,5.9-2.4,6.4-5.5h23.3c0.5,3.1,3.1,5.5,6.4,5.5c3.6,0,6.5-2.9,6.5-6.5C-176.4,393.2-179.3,390.2-182.8,390.2z M-254.9,401.2
	c-2.5,0-4.5-2-4.5-4.5c0-2.5,2-4.5,4.5-4.5c2.5,0,4.5,2,4.5,4.5C-250.4,399.2-252.4,401.2-254.9,401.2z M-218.9,401.2
	c-2.5,0-4.5-2-4.5-4.5c0-2.5,2-4.5,4.5-4.5c2.5,0,4.5,2,4.5,4.5C-214.4,399.2-216.4,401.2-218.9,401.2z M-182.8,401.2
	c-2.5,0-4.5-2-4.5-4.5c0-2.5,2-4.5,4.5-4.5c2.5,0,4.5,2,4.5,4.5C-178.4,399.2-180.4,401.2-182.8,401.2z"/>
</svg>
