<?xml version="1.0" encoding="utf-8"?>
<!-- Generator: Adobe Illustrator 19.0.0, SVG Export Plug-In . SVG Version: 6.00 Build 0)  -->
<svg version="1.1" id="Layer_1" xmlns="http://www.w3.org/2000/svg" xmlns:xlink="http://www.w3.org/1999/xlink" x="0px" y="0px"
	 viewBox="-262 390 86 14" style="enable-background:new -262 390 86 14;" xml:space="preserve">
<style type="text/css">
	.st0{fill:#1CB19B;}
</style>
<path class="st0" d="M-182.9,390.5c-3.2,0-5.9,2.4-6.4,5.5h-23.3c-0.5-3.1-3.1-5.5-6.4-5.5c-3.2,0-5.9,2.4-6.4,5.5h-23.3
	c-0.5-3.1-3.1-5.5-6.4-5.5c-3.6,0-6.5,2.9-6.5,6.5s2.9,6.5,6.5,6.5c3.2,0,5.9-2.4,6.4-5.5h23.3c0.5,3.1,3.1,5.5,6.4,5.5
	c3.2,0,5.9-2.4,6.4-5.5h23.3c0.5,3.1,3.1,5.5,6.4,5.5c3.6,0,6.5-2.9,6.5-6.5C-176.5,393.5-179.4,390.5-182.9,390.5z M-255,401.5
	c-2.5,0-4.5-2-4.5-4.5s2-4.5,4.5-4.5c2.5,0,4.5,2,4.5,4.5S-252.5,401.5-255,401.5z M-219,401.5c-2.5,0-4.5-2-4.5-4.5s2-4.5,4.5-4.5
	s4.5,2,4.5,4.5S-216.5,401.5-219,401.5z M-182.9,401.5c-2.5,0-4.5-2-4.5-4.5s2-4.5,4.5-4.5s4.5,2,4.5,4.5
	C-178.5,399.5-180.5,401.5-182.9,401.5z"/>
</svg>
